<svg
        xmlns="http://www.w3.org/2000/svg"
        viewBox="0 0 128 128"
        width="128"
        height="128">
    <path
            d="       M64 24       C93 24 104 35 104 64       C104 93 93 104 64 104       C35 104 24 93 24 64       C24 35 35 24 64 24       Z"
            fill="none"
            stroke="#ffffff"
            stroke-width="4"
            id="squircle"/>
    <path
            d="M 35,95 C 40,77 56,62 80,50"
            fill="none"
            stroke="#ffffff"
            stroke-width="4"
            stroke-linecap="round"
            id="arrow"/>
    <path
            d="m 79,46.5 7.5,0 -4.2,6.4 z"
            fill="#none"
            stroke="#ffffff"
            stroke-width="6"
            stroke-linejoin="round"
            id="arrowhead"/>
    <path
            d="m 25,44 c -10,0 -10,0 -10,0"
            fill="none"
            stroke="#ffffff"
            stroke-width="4"
            stroke-linecap="round"
            id="pin0"/>
    <ellipse
            fill="none"
            stroke="#ffffff"
            stroke-width="4"
            stroke-linecap="round"
            id="pin0_end"
            cx="10"
            cy="44"
            rx="4"
            ry="4"/>
    <path
            d="m 25,84 c -10,0 -10,0 -10,0"
            fill="none"
            stroke="#ffffff"
            stroke-width="4"
            stroke-linecap="round"
            id="pin1"/>
    <ellipse
            fill="none"
            stroke="#ffffff"
            stroke-width="4"
            stroke-linecap="round"
            id="pin1_end"
            cx="10"
            cy="84"
            rx="4"
            ry="4"/>
    <path
            d="m 44,103 c 0,0 0,0 0,10"
            fill="none"
            stroke="#ffffff"
            stroke-width="4"
            stroke-linecap="round"
            id="pin2"/>
    <ellipse
            fill="none"
            stroke="#ffffff"
            stroke-width="4"
            stroke-linecap="round"
            id="pin2_end"
            cx="44"
            cy="118"
            rx="4"
            ry="4"/>
    <path
            d="m 84,103 c 0,0 0,0 0,10"
            fill="none"
            stroke="#ffffff"
            stroke-width="4"
            stroke-linecap="round"
            id="pin3"/>
    <ellipse
            fill="none"
            stroke="#ffffff"
            stroke-width="4"
            stroke-linecap="round"
            id="pin3_end"
            cx="84"
            cy="118"
            rx="4"
            ry="4"/>
    <path
            d="m 103,84 c 0,0 10,0 10,0"
            fill="none"
            stroke="#ffffff"
            stroke-width="4"
            stroke-linecap="round"
            id="pin4"/>
    <ellipse
            fill="none"
            stroke="#ffffff"
            stroke-width="4"
            stroke-linecap="round"
            id="pin4_end"
            cx="118"
            cy="84"
            rx="4"
            ry="4"/>
    <path
            d="m 103,44 c 0,0 10,0 10,0"
            fill="none"
            stroke="#ffffff"
            stroke-width="4"
            stroke-linecap="round"
            id="pin5"/>
    <ellipse
            fill="none"
            stroke="#ffffff"
            stroke-width="4"
            stroke-linecap="round"
            id="pin5_end"
            cx="118"
            cy="44"
            rx="4"
            ry="4"/>
    <path
            d="m 84,25 c 0,0 0,0 0,-10"
            fill="none"
            stroke="#ffffff"
            stroke-width="4"
            stroke-linecap="round"
            id="pin6"/>
    <ellipse
            fill="none"
            stroke="#ffffff"
            stroke-width="4"
            stroke-linecap="round"
            id="pin6_end"
            cx="84"
            cy="10"
            rx="4"
            ry="4"/>
    <path
            d="m 44,25 c 0,-10 0,0 0,-10"
            fill="none"
            stroke="#ffffff"
            stroke-width="4"
            stroke-linecap="round"
            id="pin7"/>
    <ellipse
            fill="none"
            stroke="#ffffff"
            stroke-width="4"
            stroke-linecap="round"
            id="pin7_end"
            cx="44"
            cy="10"
            rx="4"
            ry="4"/>
</svg>
